<svg width="80" height="70" viewBox="0 0 80 70" fill="none" xmlns="http://www.w3.org/2000/svg">
<path d="M28.1716 0.672569C34.9607 -0.677855 41.9981 0.0149985 48.3933 2.66378C54.7887 5.31282 60.2555 9.79974 64.1013 15.5554C67.5499 20.7166 69.5556 26.6908 69.9334 32.861H79.7351L62.2224 56.778L44.7097 32.861H54.3269C53.262 23.1285 45.0158 15.5554 34.9998 15.5554C24.2612 15.5557 15.5556 24.2611 15.5554 34.9997C15.5555 45.7384 24.2612 54.4438 34.9998 54.4441V69.9997C28.0776 69.9996 21.31 67.947 15.5545 64.1013C9.7991 60.2555 5.31283 54.7893 2.66383 48.3942C0.0148199 41.9989 -0.677809 34.9608 0.672623 28.1716C2.02308 21.3827 5.35633 15.1464 10.2507 10.2517C15.1455 5.35694 21.3825 2.02311 28.1716 0.672569Z" fill="white"/>
</svg>
