<svg width="295" height="295" viewBox="0 0 295 295" fill="none" xmlns="http://www.w3.org/2000/svg" style="background:transparent">
<path d="M147.5 0L153.627 46.2051L165.279 1.07544L165.792 47.6823L182.799 4.28609L177.691 50.6149L199.804 9.5851L189.149 54.9604L216.047 16.8952L199.999 60.6553L231.29 26.1099L210.085 67.6166L245.311 37.0947L219.257 75.7428L257.905 49.6894L227.383 84.9154L268.89 63.7104L234.345 95.0006L278.105 78.9533L240.04 105.851L285.415 95.1958L244.385 117.309L290.714 112.201L247.318 129.208L293.925 129.721L248.795 141.373L295 147.5L248.795 153.627L293.925 165.279L247.318 165.792L290.714 182.799L244.385 177.691L285.415 199.804L240.04 189.149L278.105 216.047L234.345 199.999L268.89 231.29L227.383 210.085L257.905 245.311L219.257 219.257L245.311 257.905L210.085 227.383L231.29 268.89L199.999 234.345L216.047 278.105L189.149 240.04L199.804 285.415L177.691 244.385L182.799 290.714L165.792 247.318L165.279 293.925L153.627 248.795L147.5 295L141.373 248.795L129.721 293.925L129.208 247.318L112.201 290.714L117.309 244.385L95.1958 285.415L105.851 240.04L78.9533 278.105L95.0006 234.345L63.7104 268.89L84.9154 227.383L49.6894 257.905L75.7428 219.257L37.0947 245.311L67.6166 210.085L26.1099 231.29L60.6553 199.999L16.8952 216.047L54.9604 189.149L9.5851 199.804L50.6149 177.691L4.28609 182.799L47.6823 165.792L1.07544 165.279L46.2051 153.627L0 147.5L46.2051 141.373L1.07544 129.721L47.6823 129.208L4.28609 112.201L50.6149 117.309L9.5851 95.1958L54.9604 105.851L16.8952 78.9533L60.6553 95.0006L26.1099 63.7104L67.6166 84.9154L37.0947 49.6894L75.7428 75.7428L49.6894 37.0947L84.9154 67.6166L63.7104 26.1099L95.0006 60.6553L78.9533 16.8952L105.851 54.9604L95.1958 9.5851L117.309 50.6149L112.201 4.28609L129.208 47.6823L129.721 1.07544L141.373 46.2051L147.5 0Z" fill="#E7FA2F"/>
</svg>
